<?xml version="1.0" standalone="no"?>
<!DOCTYPE svg PUBLIC "-//W3C//DTD SVG 20010904//EN"
 "http://www.w3.org/TR/2001/REC-SVG-20010904/DTD/svg10.dtd">
<svg version="1.0" xmlns="http://www.w3.org/2000/svg"
 width="932.000000pt" height="932.000000pt" viewBox="0 0 932.000000 932.000000"
 preserveAspectRatio="xMidYMid meet">
<metadata>
Created by potrace 1.11, written by Peter Selinger 2001-2013
</metadata>
<g transform="translate(0.000000,932.000000) scale(0.100000,-0.100000)"
fill="#000000" stroke="none">
<path d="M1390 4670 l0 -4651 143 1 c78 1 147 1 152 0 6 -1 15 -1 20 0 14 2
88 3 100 0 6 -1 15 -2 20 -1 14 3 208 3 220 1 6 -1 15 -1 20 0 14 2 88 3 100
0 6 -1 15 -2 20 -1 14 2 771 2 782 0 4 -1 13 0 18 1 14 2 88 3 100 0 6 -1 15
-2 20 -1 14 3 208 3 220 1 6 -1 15 -1 20 0 14 2 88 3 100 0 6 -1 15 -2 20 -1
6 1 118 1 250 2 l241 0 -1 1561 c0 1032 3 1562 10 1564 6 2 213 5 460 8 425 4
506 6 650 21 133 14 177 19 280 36 93 14 125 20 295 54 8 2 15 4 15 5 0 1 7 3
15 5 8 2 26 6 40 9 41 8 63 14 100 26 19 6 46 13 60 16 14 3 88 28 165 56 77
27 155 55 172 62 18 6 33 14 33 18 0 5 7 8 15 8 19 0 293 136 316 156 8 8 21
14 27 14 7 0 12 5 12 10 0 6 5 10 10 10 26 0 248 161 369 268 110 97 259 254
336 356 11 15 25 32 31 39 17 20 128 188 156 237 49 86 98 182 129 253 17 40
37 86 45 102 26 59 88 244 117 355 20 74 64 293 72 355 3 28 8 57 10 65 4 17
13 98 22 203 9 97 9 592 0 692 -10 107 -15 153 -22 196 -3 20 -8 51 -10 70 -6
45 -34 200 -41 221 -3 9 -6 25 -8 35 -41 208 -181 573 -292 760 -11 17 -35 57
-54 90 -19 32 -37 62 -39 67 -2 5 -9 16 -16 25 -8 9 -44 57 -81 106 -37 50
-73 96 -78 103 -6 7 -67 71 -136 141 -127 130 -197 192 -305 272 -33 24 -61
47 -63 52 -2 4 -10 7 -17 7 -7 0 -15 3 -17 8 -11 26 -343 211 -478 267 -36 14
-78 32 -95 40 -16 7 -66 25 -110 40 -44 14 -88 30 -97 35 -9 5 -31 12 -49 15
-18 3 -35 8 -38 10 -7 4 -184 51 -221 59 -176 36 -288 57 -336 62 -61 7 -89
11 -89 14 0 1 -16 3 -35 4 -119 11 -201 19 -240 23 -25 3 -836 8 -1802 10
l-1758 4 0 -4651z m3255 2266 c273 -13 465 -100 564 -254 33 -53 68 -150 77
-217 2 -11 7 -47 11 -80 15 -106 7 -299 -18 -415 -45 -213 -194 -359 -411
-404 -13 -3 -34 -7 -48 -11 -75 -16 -148 -19 -490 -20 l-374 0 0 690 c0 380 2
697 6 705 5 13 45 15 294 13 159 -2 334 -5 389 -7z"/>
<path d="M5479 2266 c-2 -2 -29 -7 -59 -11 -90 -11 -257 -67 -350 -118 -62
-34 -163 -101 -190 -126 -147 -137 -218 -225 -286 -357 -43 -82 -99 -245 -109
-319 -3 -22 -8 -53 -10 -70 -6 -45 -6 -246 0 -275 3 -14 7 -36 9 -50 10 -68
54 -204 93 -290 66 -146 217 -329 343 -419 36 -25 67 -49 68 -53 2 -5 8 -8 14
-8 5 0 22 -8 36 -18 47 -32 221 -103 292 -119 115 -25 179 -31 295 -28 134 4
177 9 231 26 17 5 40 11 51 13 70 14 303 119 303 137 0 5 6 9 13 9 7 0 22 8
33 18 10 9 36 30 58 46 44 33 176 166 176 177 0 5 11 19 25 33 14 14 25 27 25
30 0 3 15 29 33 58 39 63 97 188 97 211 0 9 4 18 8 21 8 5 30 87 38 141 2 11
7 43 12 71 9 52 7 260 -2 304 -3 14 -9 41 -12 60 -5 31 -18 79 -32 120 -3 8
-6 22 -8 30 -2 8 -7 23 -13 35 -5 11 -22 47 -37 80 -30 65 -87 159 -110 182
-8 8 -14 18 -14 23 0 20 -185 192 -261 242 -90 60 -225 127 -259 130 -3 0 -13
4 -23 10 -10 5 -27 11 -38 14 -10 2 -29 7 -41 10 -84 21 -160 30 -269 32 -70
1 -128 0 -130 -2z m216 -771 c57 -15 124 -55 175 -106 28 -27 48 -54 45 -59
-3 -4 -1 -10 5 -12 5 -1 19 -28 30 -59 83 -237 -87 -485 -339 -493 -135 -5
-261 67 -331 189 -37 65 -44 93 -43 190 0 66 5 91 27 142 28 61 103 144 156
173 78 42 191 56 275 35z"/>
</g>
</svg>
